HIERARCHY
ROOT Hips
{
    OFFSET 0.000000 0.000000 0.000000
    CHANNELS 6 Xposition Yposition Zposition Zrotation Xrotation Yrotation
    JOINT Spine
    {
        OFFSET -0.000000 14.517291 0.000000
        CHANNELS 3 Zrotation Xrotation Yrotation
        JOINT Spine1
        {
            OFFSET -0.000000 37.558300 0.000000
            CHANNELS 3 Zrotation Xrotation Yrotation
            JOINT Neck
            {
                OFFSET -0.000000 37.404057 3.400369
                CHANNELS 3 Zrotation Xrotation Yrotation
                JOINT Head
                {
                    OFFSET -0.000000 24.785618 -3.540803
                    CHANNELS 3 Zrotation Xrotation Yrotation
                    End Site
                    {
                        OFFSET -0.000000 35.408028 0.000000
                    }
                }
            }
            JOINT LeftShoulder
            {
                OFFSET 6.992933 33.973492 -0.192664
                CHANNELS 3 Zrotation Xrotation Yrotation
                JOINT LeftArm
                {
                    OFFSET 21.527611 0.000000 0.000000
                    CHANNELS 3 Zrotation Xrotation Yrotation
                    JOINT LeftForeArm
                    {
                        OFFSET 56.353916 0.000000 0.000000
                        CHANNELS 3 Zrotation Xrotation Yrotation
                        JOINT LeftHand
                        {
                            OFFSET 47.774071 0.000000 0.000000
                            CHANNELS 3 Zrotation Xrotation Yrotation
                            End Site
                            {
                                OFFSET 26.556021 0.000000 0.000000
                            }
                        }
                    }
                }
            }
            JOINT RightShoulder
            {
                OFFSET -7.065357 33.973492 -0.192664
                CHANNELS 3 Zrotation Xrotation Yrotation
                JOINT RightArm
                {
                    OFFSET -21.527611 0.000000 0.000000
                    CHANNELS 3 Zrotation Xrotation Yrotation
                    JOINT RightForeArm
                    {
                        OFFSET -56.353916 0.000000 0.000000
                        CHANNELS 3 Zrotation Xrotation Yrotation
                        JOINT RightHand
                        {
                            OFFSET -47.774071 0.000000 0.000000
                            CHANNELS 3 Zrotation Xrotation Yrotation
                            End Site
                            {
                                OFFSET -26.556021 0.000000 0.000000
                            }
                        }
                    }
                }
            }
        }
    }
    JOINT LeftUpLeg
    {
        OFFSET 17.704014 0.000000 0.000000
        CHANNELS 3 Zrotation Xrotation Yrotation
        JOINT LeftLeg
        {
            OFFSET -0.000000 -81.181816 0.000000
            CHANNELS 3 Zrotation Xrotation Yrotation
            JOINT LeftFoot
            {
                OFFSET -0.000000 -62.821102 0.000000
                CHANNELS 3 Zrotation Xrotation Yrotation
                JOINT LeftToeBase
                {
                    OFFSET -0.000000 -11.507608 26.556021
                    CHANNELS 3 Zrotation Xrotation Yrotation
                    End Site
                    {
                        OFFSET -0.000000 0.000000 7.081605
                    }
                }
            }
        }
    }
    JOINT RightUpLeg
    {
        OFFSET -17.704014 0.000000 0.000000
        CHANNELS 3 Zrotation Xrotation Yrotation
        JOINT RightLeg
        {
            OFFSET -0.000000 -81.181816 0.000000
            CHANNELS 3 Zrotation Xrotation Yrotation
            JOINT RightFoot
            {
                OFFSET -0.000000 -62.821102 0.000000
                CHANNELS 3 Zrotation Xrotation Yrotation
                JOINT RightToeBase
                {
                    OFFSET -0.000000 -11.507608 26.556021
                    CHANNELS 3 Zrotation Xrotation Yrotation
                    End Site
                    {
                        OFFSET -0.000000 0.000000 7.081605
                    }
                }
            }
        }
    }
}
MOTION
Frames:    11
Frame Time:    0.008333
-30.509911    150.485977    -35.404160    2.339585    -1.094074    17.938908    -2.852769    1.430792    4.072484    0.440887    5.664246    1.325641    -7.109838    -2.767392    -11.292894    15.625173    -0.087468    -8.297004    7.012846    1.519970    -15.388732    -30.641933    13.529138    -70.788353    27.581120    -53.722111    -74.433441    -27.027964    -32.494411    -32.095531    -0.133431    10.705827    2.542223    34.633484    12.908674    56.275112    -33.754387    -28.398771    43.287582    8.260713    -13.252172    32.381218    -0.325142    -31.468899    -24.992214    -12.091273    25.856653    -22.586601    -8.915254    -1.021078    33.955826    0.000000    0.000000    0.000000    -1.298443    6.935878    -14.219026    3.214281    34.009636    -2.788871    -0.679424    -35.576050    -7.793108    0.000000    0.000000    0.000000    
-30.513218    150.484955    -35.387875    2.336072    -1.079260    18.016300    -2.850672    1.422075    4.134836    0.448248    5.669410    1.346114    -7.202877    -2.703806    -11.385022    15.716460    -0.135848    -8.361596    6.957601    1.500615    -15.274449    -30.724367    13.517171    -70.617722    27.247627    -53.635197    -74.873589    -26.992008    -32.496468    -31.961208    -0.161240    10.749811    2.544380    34.679703    12.789783    56.152718    -33.833424    -28.422173    43.306320    8.279386    -13.231547    32.392345    -0.350480    -31.484045    -25.024387    -12.096303    25.846519    -22.597410    -8.907457    -1.001169    33.914246    0.000000    0.000000    0.000000    -1.281308    6.946938    -14.255638    3.241477    33.980011    -2.871225    -0.667051    -35.575489    -7.770452    0.000000    0.000000    0.000000    
-30.514902    150.482483    -35.372181    2.334818    -1.064394    18.089272    -2.844300    1.424990    4.198647    0.441510    5.660438    1.367786    -7.288159    -2.647469    -11.465251    15.813052    -0.179909    -8.414463    6.902905    1.487367    -15.135004    -30.843555    13.497077    -70.473335    26.872143    -53.515514    -75.352158    -27.005114    -32.466106    -31.795908    -0.187818    10.792135    2.561736    34.702007    12.699480    56.010029    -33.937386    -28.453690    43.319305    8.263539    -13.223096    32.375374    -0.376016    -31.497301    -25.051119    -12.099400    25.832993    -22.591225    -8.908521    -0.980730    33.854565    0.000000    0.000000    0.000000    -1.265882    6.952219    -14.306062    3.243690    33.966263    -2.888760    -0.693153    -35.573399    -7.791811    0.000000    0.000000    0.000000    
-30.517378    150.478851    -35.358517    2.333984    -1.044638    18.158209    -2.836711    1.419600    4.269813    0.429660    5.651860    1.392175    -7.366439    -2.550926    -11.551106    15.909225    -0.269458    -8.470887    6.834477    1.472949    -14.991253    -30.835117    13.554947    -70.347389    26.706318    -53.488552    -75.631813    -27.074823    -32.442055    -31.766724    -0.212736    10.810326    2.592952    34.702190    12.675001    55.840069    -34.113598    -28.540216    43.281803    8.296683    -13.246304    32.385136    -0.401144    -31.514082    -25.080374    -12.102170    25.816605    -22.600172    -8.896169    -0.952819    33.817051    0.000000    0.000000    0.000000    -1.254563    6.946537    -14.353404    3.243378    33.964439    -2.904382    -0.667475    -35.575356    -7.788148    0.000000    0.000000    0.000000    
-30.519176    150.475388    -35.342838    2.337626    -1.029502    18.232424    -2.840945    1.419307    4.339812    0.428794    5.644639    1.415542    -7.467042    -2.452973    -11.636053    16.040878    -0.362224    -8.516990    6.767429    1.462102    -14.858480    -30.922995    13.558031    -70.194046    26.430262    -53.375080    -76.042091    -27.075333    -32.367130    -31.659185    -0.249531    10.841199    2.623186    34.774975    12.568108    55.656471    -34.168652    -28.561302    43.336132    8.321754    -13.217837    32.410206    -0.440719    -31.529179    -25.107517    -12.103022    25.818941    -22.591009    -8.873805    -0.920180    33.759670    0.000000    0.000000    0.000000    -1.247493    6.949653    -14.388915    3.262474    33.961315    -2.897939    -0.691387    -35.565632    -7.844415    0.000000    0.000000    0.000000    
-30.519508    150.472549    -35.330154    2.342713    -1.004409    18.311867    -2.853259    1.420992    4.412293    0.434100    5.619846    1.439511    -7.559018    -2.368765    -11.727856    16.152548    -0.428067    -8.577490    6.699395    1.462730    -14.750683    -30.969391    13.583433    -70.045990    26.422018    -53.213848    -76.196365    -26.980093    -32.097286    -31.753452    -0.279611    10.883921    2.622034    34.819916    12.489946    55.499691    -34.233414    -28.597080    43.375671    8.341664    -13.210029    32.411507    -0.491615    -31.553198    -25.151772    -12.101480    25.816938    -22.565876    -8.848536    -0.873401    33.698109    0.000000    0.000000    0.000000    -1.240215    6.940962    -14.423587    3.274750    33.959869    -2.939551    -0.701667    -35.562958    -7.862739    0.000000    0.000000    0.000000    
-30.521509    150.468033    -35.312439    2.349708    -0.985866    18.390619    -2.859586    1.418790    4.480693    0.431680    5.605432    1.462443    -7.653581    -2.269037    -11.812131    16.268564    -0.509091    -8.627966    6.630038    1.469296    -14.651669    -31.055944    13.564044    -69.880104    26.226555    -53.106312    -76.535057    -26.998169    -31.990456    -31.663107    -0.320462    10.965983    2.639363    34.846085    12.399089    55.368179    -34.318634    -28.642725    43.384003    8.359384    -13.218474    32.378899    -0.542499    -31.568163    -25.202274    -12.098096    25.807341    -22.540646    -8.825140    -0.817346    33.631584    0.000000    0.000000    0.000000    -1.230122    6.992636    -14.470170    3.915025    33.745579    -4.224774    -1.240470    -35.573200    -7.988943    0.000000    0.000000    0.000000    
-30.523973    150.463760    -35.294926    2.355778    -0.964488    18.480036    -2.859589    1.422470    4.543791    0.412617    5.577375    1.484476    -7.733380    -2.148060    -11.900650    16.388952    -0.615652    -8.682626    6.574778    1.486629    -14.546723    -31.171566    13.536725    -69.731018    25.769114    -53.098900    -77.102005    -27.199263    -32.110886    -31.509668    -0.338767    11.012683    2.666417    34.870609    12.340212    55.192818    -34.403549    -28.691805    43.400387    8.400093    -13.219471    32.372974    -0.603942    -31.589958    -25.282543    -12.094749    25.802406    -22.550087    -8.804065    -0.770679    33.614647    0.000000    0.000000    0.000000    -1.217156    6.994030    -14.521540    3.918062    33.735245    -4.254871    -1.225386    -35.573166    -8.002928    0.000000    0.000000    0.000000    
-30.522362    150.461411    -35.277348    2.362760    -0.939440    18.566450    -2.850435    1.420637    4.611134    0.381203    5.554352    1.508589    -7.778853    -2.049176    -11.981221    16.443064    -0.705660    -8.745399    6.504986    1.519513    -14.399929    -31.237795    13.615962    -69.566002    25.862274    -52.936760    -77.244720    -27.093079    -31.783169    -31.556187    -0.359011    11.012727    2.725260    34.905769    12.298557    54.952026    -34.459148    -28.747147    43.458359    8.435518    -13.228813    32.340450    -0.663510    -31.615343    -25.383335    -12.103348    25.794901    -22.575628    -8.778587    -0.725252    33.609966    0.000000    0.000000    0.000000    -1.216053    6.946504    -14.571383    3.301349    33.927433    -2.990544    -0.721740    -35.571663    -7.947390    0.000000    0.000000    0.000000    
-30.523392    150.458649    -35.260612    2.366495    -0.910811    18.663010    -2.841940    1.418369    4.674669    0.361695    5.525661    1.530843    -7.874969    -1.943528    -12.068114    16.557310    -0.789108    -8.798703    6.437484    1.550764    -14.286184    -31.268709    13.643755    -69.470177    25.934120    -52.904793    -77.341682    -27.140892    -31.649849    -31.513720    -0.391312    11.049704    2.750613    34.889530    12.300835    54.779434    -34.598518    -28.820459    43.423195    8.446652    -13.261034    32.319733    -0.733236    -31.651003    -25.505314    -12.117705    25.799919    -22.571205    -8.773047    -0.692951    33.622208    0.000000    0.000000    0.000000    -1.201013    6.939512    -14.655650    3.277645    33.920856    -2.998840    -0.702268    -35.571762    -7.939596    0.000000    0.000000    0.000000    
-30.527206    150.456406    -35.236500    2.361446    -0.887457    18.768826    -2.827309    1.415155    4.737539    0.348662    5.505648    1.552576    -7.975002    -1.857598    -12.166849    16.669031    -0.851198    -8.865820    6.361884    1.556149    -14.180474    -31.350351    13.664932    -69.329506    25.756378    -52.865555    -77.675644    -27.252247    -31.602213    -31.447369    -0.430169    11.082523    2.728842    34.908409    12.284731    54.643169    -34.681728    -28.848785    43.410500    8.417973    -13.268672    32.327385    -0.792514    -31.677296    -25.632483    -12.131752    25.790998    -22.571333    -8.750674    -0.660438    33.627605    0.000000    0.000000    0.000000    -1.168090    6.992880    -14.731144    3.893223    33.691288    -4.293248    -1.202921    -35.563076    -8.031048    0.000000    0.000000    0.000000    
